<?xml version="1.0" standalone="no"?>
<!DOCTYPE svg PUBLIC "-//W3C//DTD SVG 20010904//EN"
 "http://www.w3.org/TR/2001/REC-SVG-20010904/DTD/svg10.dtd">
<svg version="1.0" xmlns="http://www.w3.org/2000/svg"
 width="1440.000000pt" height="1440.000000pt" viewBox="0 0 1440.000000 1440.000000"
 preserveAspectRatio="xMidYMid meet">
<metadata>
Created by potrace 1.14, written by Peter Selinger 2001-2017
</metadata>
<g transform="translate(0.000000,1440.000000) scale(0.100000,-0.100000)"
fill="#000000" stroke="none">
<path d="M6965 12380 c-813 -52 -1569 -343 -2173 -838 -204 -167 -440 -410
-590 -608 -153 -203 -319 -488 -413 -709 -70 -165 -147 -409 -184 -580 -59
-278 -68 -364 -72 -755 l-5 -355 24 -35 c47 -70 46 -70 494 -70 399 0 401 0
434 23 18 12 43 35 54 50 20 27 21 44 27 350 6 339 16 434 64 627 197 785 826
1443 1645 1720 357 120 730 171 1092 150 193 -12 316 -30 503 -75 663 -158
1229 -540 1585 -1070 248 -370 373 -757 387 -1200 14 -461 -116 -918 -371
-1300 -249 -374 -591 -671 -1010 -880 -190 -94 -322 -143 -556 -206 -232 -63
-301 -87 -420 -151 -144 -77 -244 -151 -360 -268 -221 -222 -358 -489 -411
-798 -16 -95 -19 -163 -19 -412 0 -292 0 -298 23 -330 12 -18 35 -43 50 -54
28 -21 38 -21 435 -21 389 0 408 1 440 20 18 11 43 36 55 55 21 33 22 49 27
320 5 266 7 289 28 339 45 107 118 188 215 238 27 13 101 38 165 54 440 114
798 268 1152 497 230 149 375 267 591 482 231 230 296 307 444 530 317 477
496 983 546 1548 15 169 7 536 -16 697 -53 386 -171 758 -348 1095 -212 406
-518 777 -892 1085 -482 395 -1091 672 -1715 779 -306 53 -650 74 -925 56z"/>
<path d="M7070 3511 c-281 -53 -505 -254 -592 -531 -20 -65 -23 -95 -23 -220
1 -132 3 -152 29 -225 44 -128 90 -201 190 -300 153 -153 309 -217 526 -217
217 0 373 64 526 217 100 100 147 174 190 300 35 105 44 262 20 384 -38 204
-192 412 -376 510 -106 57 -204 82 -330 86 -63 2 -135 0 -160 -4z"/>
</g>
</svg>
